<?xml version="1.0" encoding="UTF-8" standalone="no"?>
<svg
   xmlns:dc="http://purl.org/dc/elements/1.1/"
   xmlns:cc="http://creativecommons.org/ns#"
   xmlns:rdf="http://www.w3.org/1999/02/22-rdf-syntax-ns#"
   xmlns:svg="http://www.w3.org/2000/svg"
   xmlns="http://www.w3.org/2000/svg"
   viewBox="0 0 540 48"
   height="48"
   width="540"
   xml:space="preserve"
   id="svg2"
   version="1.1"><metadata
     id="metadata8"><rdf:RDF><cc:Work
         rdf:about=""><dc:format>image/svg+xml</dc:format><dc:type
           rdf:resource="http://purl.org/dc/dcmitype/StillImage" /></cc:Work></rdf:RDF></metadata><defs
     id="defs6" /><g
     transform="matrix(1.3333333,0,0,-1.3333333,0,48)"
     id="g10"><g
       transform="scale(0.1)"
       id="g12"><path
         id="path14"
         style="fill:#000000;fill-opacity:1;fill-rule:nonzero;stroke:none"
         d="M 345.859,218.914 C 337.004,305.145 279.676,355.949 177.133,355.949 83.4453,355.949 9.80469,288.363 9.80469,179.766 9.80469,70.6992 76.9219,2.64844 187.852,2.64844 c 88.562,0 150.546,52.20316 160.336,138.89456 H 242.387 c -4.196,-32.156 -20.977,-56.8633 -56.399,-56.8633 -55.929,0 -66.183,44.2813 -66.183,91.3553 0,64.789 23.304,97.883 61.988,97.883 34.492,0 56.398,-20.043 59.66,-55.004 z M 900.594,65.3242 H 786.262 L 769.844,11.5039 h -103 L 789.762,338.07 H 900.215 L 1022.6,11.5039 H 916.934 Z M 879.23,136.02 843.578,253.387 807.773,136.02 Z m 479.43,202.05 h 100.8 V 91.7773 h 157.81 V 11.5039 h -258.61 z m 612.54,0 h 101.25 V 11.5039 H 1971.2 Z m 460.27,-218.547 95.78,6.004 c 2.06,-15.504 6.31,-27.3629 12.7,-35.4215 10.41,-13.1524 25.23,-19.7657 44.55,-19.7657 14.36,0 25.46,3.3477 33.21,10.1133 7.83,6.7657 11.71,14.5938 11.71,23.4879 0,8.438 -3.65,16.039 -11.02,22.731 -7.38,6.687 -24.56,12.918 -51.54,18.926 -44.24,9.882 -75.71,23.109 -94.57,39.601 -19,16.422 -28.5,37.403 -28.5,62.946 0,16.722 4.86,32.531 14.59,47.433 9.73,14.973 24.33,26.68 43.86,35.195 19.54,8.512 46.3,12.77 80.28,12.77 41.73,0 73.5,-7.75 95.4,-23.336 21.89,-15.508 34.89,-40.215 39.07,-74.117 l -94.87,-5.625 c -2.51,14.824 -7.83,25.621 -15.89,32.305 -8.13,6.769 -19.3,10.113 -33.52,10.113 -11.71,0 -20.6,-2.508 -26.53,-7.449 -5.93,-4.942 -8.89,-11.024 -8.89,-18.168 0,-5.172 2.43,-9.809 7.22,-13.985 4.63,-4.336 15.89,-8.289 33.67,-12.015 44.09,-9.5 75.64,-19.153 94.64,-28.883 19.09,-9.731 32.99,-21.742 41.66,-36.188 8.67,-14.363 13,-30.48 13,-48.343 0,-20.9067 -5.78,-40.2114 -17.33,-57.9262 -11.63,-17.6328 -27.75,-31.0899 -48.58,-40.211 -20.75,-9.121 -46.9,-13.68355 -78.52,-13.68355 -55.49,0 -93.96,10.71875 -115.32,32.07815 -21.35,21.3594 -33.44,48.5 -36.26,81.4136 z m 628.12,218.547 h 306.95 V 257.344 H 3263.46 V 11.5039 H 3162.67 V 257.344 H 3059.59 Z M 3916.9,65.3242 h -114.33 l -16.42,-53.8203 h -103 L 3806.07,338.07 h 110.45 L 4038.91,11.5039 h -105.67 z m -21.36,70.6958 -35.65,117.367 -35.81,-117.367 z" /><path
         id="path16"
         style="fill:none;stroke:#000000;stroke-width:2.16000009;stroke-linecap:butt;stroke-linejoin:miter;stroke-miterlimit:22.92560005;stroke-dasharray:none;stroke-opacity:1"
         d="M 345.859,218.914 C 337.004,305.145 279.676,355.949 177.133,355.949 83.4453,355.949 9.80469,288.363 9.80469,179.766 9.80469,70.6992 76.9219,2.64844 187.852,2.64844 c 88.562,0 150.546,52.20316 160.336,138.89456 H 242.387 c -4.196,-32.156 -20.977,-56.8633 -56.399,-56.8633 -55.929,0 -66.183,44.2813 -66.183,91.3553 0,64.789 23.304,97.883 61.988,97.883 34.492,0 56.398,-20.043 59.66,-55.004 z M 900.594,65.3242 H 786.262 L 769.844,11.5039 h -103 L 789.762,338.07 H 900.215 L 1022.6,11.5039 H 916.934 Z M 879.23,136.02 843.578,253.387 807.773,136.02 Z m 479.43,202.05 h 100.8 V 91.7773 h 157.81 V 11.5039 h -258.61 z m 612.54,0 h 101.25 V 11.5039 H 1971.2 Z m 460.27,-218.547 95.78,6.004 c 2.06,-15.504 6.31,-27.3629 12.7,-35.4215 10.41,-13.1524 25.23,-19.7657 44.55,-19.7657 14.36,0 25.46,3.3477 33.21,10.1133 7.83,6.7657 11.71,14.5938 11.71,23.4879 0,8.438 -3.65,16.039 -11.02,22.731 -7.38,6.687 -24.56,12.918 -51.54,18.926 -44.24,9.882 -75.71,23.109 -94.57,39.601 -19,16.422 -28.5,37.403 -28.5,62.946 0,16.722 4.86,32.531 14.59,47.433 9.73,14.973 24.33,26.68 43.86,35.195 19.54,8.512 46.3,12.77 80.28,12.77 41.73,0 73.5,-7.75 95.4,-23.336 21.89,-15.508 34.89,-40.215 39.07,-74.117 l -94.87,-5.625 c -2.51,14.824 -7.83,25.621 -15.89,32.305 -8.13,6.769 -19.3,10.113 -33.52,10.113 -11.71,0 -20.6,-2.508 -26.53,-7.449 -5.93,-4.942 -8.89,-11.024 -8.89,-18.168 0,-5.172 2.43,-9.809 7.22,-13.985 4.63,-4.336 15.89,-8.289 33.67,-12.015 44.09,-9.5 75.64,-19.153 94.64,-28.883 19.09,-9.731 32.99,-21.742 41.66,-36.188 8.67,-14.363 13,-30.48 13,-48.343 0,-20.9067 -5.78,-40.2114 -17.33,-57.9262 -11.63,-17.6328 -27.75,-31.0899 -48.58,-40.211 -20.75,-9.121 -46.9,-13.68355 -78.52,-13.68355 -55.49,0 -93.96,10.71875 -115.32,32.07815 -21.35,21.3594 -33.44,48.5 -36.26,81.4136 z m 628.12,218.547 h 306.95 V 257.344 H 3263.46 V 11.5039 H 3162.67 V 257.344 H 3059.59 Z M 3916.9,65.3242 h -114.33 l -16.42,-53.8203 h -103 L 3806.07,338.07 h 110.45 L 4038.91,11.5039 h -105.67 z m -21.36,70.6958 -35.65,117.367 -35.81,-117.367 z" /></g></g></svg>